<svg enable-background="new 30.6 120.6 550.8 550.8" height="550.8" viewBox="30.6 120.6 550.8 550.8" width="550.8" xmlns="http://www.w3.org/2000/svg"><path d="m520.201 120.6h-428.401c-33.66 0-61.2 27.54-61.2 61.2v428.401c0 33.689 27.54 61.199 61.2 61.199h214.2v-214.199h-61.2v-75.736h61.2v-62.729c0-66.218 37.088-112.73 115.24-112.73l55.172.062v79.713h-36.629c-30.416 0-41.982 22.828-41.982 44.004v51.715h78.58l-17.381 75.701h-61.2v214.199h122.4c33.66 0 61.199-27.51 61.199-61.199v-428.401c.001-33.66-27.538-61.2-61.198-61.2z" fill="#222"/></svg>